<mxfile host="Electron" modified="2023-05-16T11:41:24.429Z" agent="Mozilla/5.0 (Windows NT 10.0; Win64; x64) AppleWebKit/537.36 (KHTML, like Gecko) draw.io/21.1.2 Chrome/106.0.5249.199 Electron/21.4.3 Safari/537.36" etag="Cl-zB3IiLgWQfMg3Q-xu" version="21.1.2" type="device">
  <diagram id="C5RBs43oDa-KdzZeNtuy" name="Page-1">
    <mxGraphModel dx="3545" dy="2273" grid="1" gridSize="10" guides="1" tooltips="1" connect="1" arrows="1" fold="1" page="1" pageScale="1" pageWidth="827" pageHeight="1169" math="0" shadow="0">
      <root>
        <mxCell id="WIyWlLk6GJQsqaUBKTNV-0" />
        <mxCell id="WIyWlLk6GJQsqaUBKTNV-1" parent="WIyWlLk6GJQsqaUBKTNV-0" />
        <mxCell id="zkfFHV4jXpPFQw0GAbJ--0" value="Section" style="swimlane;fontStyle=2;align=center;verticalAlign=top;childLayout=stackLayout;horizontal=1;startSize=26;horizontalStack=0;resizeParent=1;resizeLast=0;collapsible=1;marginBottom=0;rounded=0;shadow=0;strokeWidth=1;" parent="WIyWlLk6GJQsqaUBKTNV-1" vertex="1">
          <mxGeometry x="270" y="70" width="240" height="86" as="geometry">
            <mxRectangle x="230" y="140" width="160" height="26" as="alternateBounds" />
          </mxGeometry>
        </mxCell>
        <mxCell id="R3YGLiMpYP2rGIN6Nitg-2" value="+&lt;&lt;get&gt;&gt; &lt;&lt;set&gt;&gt; State :  SectionState " style="text;align=left;verticalAlign=top;spacingLeft=4;spacingRight=4;overflow=hidden;rotatable=0;points=[[0,0.5],[1,0.5]];portConstraint=eastwest;" vertex="1" parent="zkfFHV4jXpPFQw0GAbJ--0">
          <mxGeometry y="26" width="240" height="26" as="geometry" />
        </mxCell>
        <mxCell id="R3YGLiMpYP2rGIN6Nitg-1" value="+&lt;&lt;get&gt;&gt; -&lt;&lt;set&gt;&gt; Color :  SectionColor " style="text;align=left;verticalAlign=top;spacingLeft=4;spacingRight=4;overflow=hidden;rotatable=0;points=[[0,0.5],[1,0.5]];portConstraint=eastwest;" vertex="1" parent="zkfFHV4jXpPFQw0GAbJ--0">
          <mxGeometry y="52" width="240" height="26" as="geometry" />
        </mxCell>
        <mxCell id="zkfFHV4jXpPFQw0GAbJ--4" value="" style="line;html=1;strokeWidth=1;align=left;verticalAlign=middle;spacingTop=-1;spacingLeft=3;spacingRight=3;rotatable=0;labelPosition=right;points=[];portConstraint=eastwest;" parent="zkfFHV4jXpPFQw0GAbJ--0" vertex="1">
          <mxGeometry y="78" width="240" height="8" as="geometry" />
        </mxCell>
        <mxCell id="zkfFHV4jXpPFQw0GAbJ--17" value="Validator" style="swimlane;fontStyle=0;align=center;verticalAlign=top;childLayout=stackLayout;horizontal=1;startSize=26;horizontalStack=0;resizeParent=1;resizeLast=0;collapsible=1;marginBottom=0;rounded=0;shadow=0;strokeWidth=1;" parent="WIyWlLk6GJQsqaUBKTNV-1" vertex="1">
          <mxGeometry x="110" y="830" width="410" height="190" as="geometry">
            <mxRectangle x="550" y="140" width="160" height="26" as="alternateBounds" />
          </mxGeometry>
        </mxCell>
        <mxCell id="zkfFHV4jXpPFQw0GAbJ--23" value="" style="line;html=1;strokeWidth=1;align=left;verticalAlign=middle;spacingTop=-1;spacingLeft=3;spacingRight=3;rotatable=0;labelPosition=right;points=[];portConstraint=eastwest;" parent="zkfFHV4jXpPFQw0GAbJ--17" vertex="1">
          <mxGeometry y="26" width="410" height="8" as="geometry" />
        </mxCell>
        <mxCell id="zkfFHV4jXpPFQw0GAbJ--24" value="+ValidateViewInfo(info: (string name, string state)[]) : void" style="text;align=left;verticalAlign=top;spacingLeft=4;spacingRight=4;overflow=hidden;rotatable=0;points=[[0,0.5],[1,0.5]];portConstraint=eastwest;fontStyle=4" parent="zkfFHV4jXpPFQw0GAbJ--17" vertex="1">
          <mxGeometry y="34" width="410" height="26" as="geometry" />
        </mxCell>
        <mxCell id="R3YGLiMpYP2rGIN6Nitg-16" value="+ValidateSimulationTime(time: int) : void" style="text;align=left;verticalAlign=top;spacingLeft=4;spacingRight=4;overflow=hidden;rotatable=0;points=[[0,0.5],[1,0.5]];portConstraint=eastwest;fontStyle=4" vertex="1" parent="zkfFHV4jXpPFQw0GAbJ--17">
          <mxGeometry y="60" width="410" height="26" as="geometry" />
        </mxCell>
        <mxCell id="R3YGLiMpYP2rGIN6Nitg-17" value="+ValidateName(name: string?) : void" style="text;align=left;verticalAlign=top;spacingLeft=4;spacingRight=4;overflow=hidden;rotatable=0;points=[[0,0.5],[1,0.5]];portConstraint=eastwest;fontStyle=4" vertex="1" parent="zkfFHV4jXpPFQw0GAbJ--17">
          <mxGeometry y="86" width="410" height="26" as="geometry" />
        </mxCell>
        <mxCell id="R3YGLiMpYP2rGIN6Nitg-18" value="+ValidateLightsTimings(from: TimeSpan, to: TimeSpan) : void" style="text;align=left;verticalAlign=top;spacingLeft=4;spacingRight=4;overflow=hidden;rotatable=0;points=[[0,0.5],[1,0.5]];portConstraint=eastwest;fontStyle=4" vertex="1" parent="zkfFHV4jXpPFQw0GAbJ--17">
          <mxGeometry y="112" width="410" height="26" as="geometry" />
        </mxCell>
        <mxCell id="R3YGLiMpYP2rGIN6Nitg-19" value="+ValidateSection(section: Section) : void" style="text;align=left;verticalAlign=top;spacingLeft=4;spacingRight=4;overflow=hidden;rotatable=0;points=[[0,0.5],[1,0.5]];portConstraint=eastwest;fontStyle=4" vertex="1" parent="zkfFHV4jXpPFQw0GAbJ--17">
          <mxGeometry y="138" width="410" height="26" as="geometry" />
        </mxCell>
        <mxCell id="R3YGLiMpYP2rGIN6Nitg-20" value="+ValidateGreenSectionsList(sections: List&lt;GreenSection&gt;?) : void" style="text;align=left;verticalAlign=top;spacingLeft=4;spacingRight=4;overflow=hidden;rotatable=0;points=[[0,0.5],[1,0.5]];portConstraint=eastwest;fontStyle=4" vertex="1" parent="zkfFHV4jXpPFQw0GAbJ--17">
          <mxGeometry y="164" width="410" height="26" as="geometry" />
        </mxCell>
        <mxCell id="R3YGLiMpYP2rGIN6Nitg-7" style="edgeStyle=orthogonalEdgeStyle;rounded=0;orthogonalLoop=1;jettySize=auto;html=1;exitX=0.5;exitY=0;exitDx=0;exitDy=0;entryX=0.5;entryY=0;entryDx=0;entryDy=0;endArrow=block;endFill=0;endSize=22;" edge="1" parent="WIyWlLk6GJQsqaUBKTNV-1" source="R3YGLiMpYP2rGIN6Nitg-3" target="zkfFHV4jXpPFQw0GAbJ--0">
          <mxGeometry relative="1" as="geometry" />
        </mxCell>
        <mxCell id="R3YGLiMpYP2rGIN6Nitg-3" value="GreenSection" style="swimlane;fontStyle=2;align=center;verticalAlign=top;childLayout=stackLayout;horizontal=1;startSize=26;horizontalStack=0;resizeParent=1;resizeLast=0;collapsible=1;marginBottom=0;rounded=0;shadow=0;strokeWidth=1;" vertex="1" parent="WIyWlLk6GJQsqaUBKTNV-1">
          <mxGeometry x="-40" y="-53" width="240" height="86" as="geometry">
            <mxRectangle x="230" y="140" width="160" height="26" as="alternateBounds" />
          </mxGeometry>
        </mxCell>
        <mxCell id="R3YGLiMpYP2rGIN6Nitg-4" value="+&lt;&lt;get&gt;&gt; &lt;&lt;set&gt;&gt; Type :  SectionType" style="text;align=left;verticalAlign=top;spacingLeft=4;spacingRight=4;overflow=hidden;rotatable=0;points=[[0,0.5],[1,0.5]];portConstraint=eastwest;" vertex="1" parent="R3YGLiMpYP2rGIN6Nitg-3">
          <mxGeometry y="26" width="240" height="26" as="geometry" />
        </mxCell>
        <mxCell id="R3YGLiMpYP2rGIN6Nitg-6" value="" style="line;html=1;strokeWidth=1;align=left;verticalAlign=middle;spacingTop=-1;spacingLeft=3;spacingRight=3;rotatable=0;labelPosition=right;points=[];portConstraint=eastwest;" vertex="1" parent="R3YGLiMpYP2rGIN6Nitg-3">
          <mxGeometry y="52" width="240" height="8" as="geometry" />
        </mxCell>
        <mxCell id="R3YGLiMpYP2rGIN6Nitg-14" style="edgeStyle=orthogonalEdgeStyle;rounded=0;orthogonalLoop=1;jettySize=auto;html=1;exitX=1;exitY=0.5;exitDx=0;exitDy=0;entryX=0.5;entryY=1;entryDx=0;entryDy=0;endArrow=block;endFill=0;endSize=22;" edge="1" parent="WIyWlLk6GJQsqaUBKTNV-1" source="R3YGLiMpYP2rGIN6Nitg-8" target="zkfFHV4jXpPFQw0GAbJ--0">
          <mxGeometry relative="1" as="geometry" />
        </mxCell>
        <mxCell id="R3YGLiMpYP2rGIN6Nitg-94" value="" style="edgeStyle=orthogonalEdgeStyle;rounded=0;orthogonalLoop=1;jettySize=auto;html=1;endArrow=diamondThin;endFill=1;endSize=22;" edge="1" parent="WIyWlLk6GJQsqaUBKTNV-1" source="R3YGLiMpYP2rGIN6Nitg-8" target="R3YGLiMpYP2rGIN6Nitg-32">
          <mxGeometry relative="1" as="geometry" />
        </mxCell>
        <mxCell id="R3YGLiMpYP2rGIN6Nitg-8" value="YellowSection" style="swimlane;fontStyle=2;align=center;verticalAlign=top;childLayout=stackLayout;horizontal=1;startSize=26;horizontalStack=0;resizeParent=1;resizeLast=0;collapsible=1;marginBottom=0;rounded=0;shadow=0;strokeWidth=1;" vertex="1" parent="WIyWlLk6GJQsqaUBKTNV-1">
          <mxGeometry x="-40" y="190" width="240" height="86" as="geometry">
            <mxRectangle x="230" y="140" width="160" height="26" as="alternateBounds" />
          </mxGeometry>
        </mxCell>
        <mxCell id="R3YGLiMpYP2rGIN6Nitg-10" value="" style="line;html=1;strokeWidth=1;align=left;verticalAlign=middle;spacingTop=-1;spacingLeft=3;spacingRight=3;rotatable=0;labelPosition=right;points=[];portConstraint=eastwest;" vertex="1" parent="R3YGLiMpYP2rGIN6Nitg-8">
          <mxGeometry y="26" width="240" height="8" as="geometry" />
        </mxCell>
        <mxCell id="R3YGLiMpYP2rGIN6Nitg-15" style="edgeStyle=orthogonalEdgeStyle;rounded=0;orthogonalLoop=1;jettySize=auto;html=1;exitX=1;exitY=0.5;exitDx=0;exitDy=0;endArrow=block;endFill=0;entryX=0;entryY=0.5;entryDx=0;entryDy=0;endSize=22;" edge="1" parent="WIyWlLk6GJQsqaUBKTNV-1" source="R3YGLiMpYP2rGIN6Nitg-11" target="R3YGLiMpYP2rGIN6Nitg-2">
          <mxGeometry relative="1" as="geometry">
            <mxPoint x="430" y="210" as="targetPoint" />
          </mxGeometry>
        </mxCell>
        <mxCell id="R3YGLiMpYP2rGIN6Nitg-93" value="" style="edgeStyle=orthogonalEdgeStyle;rounded=0;orthogonalLoop=1;jettySize=auto;html=1;entryX=1;entryY=0.5;entryDx=0;entryDy=0;endSize=22;endArrow=diamondThin;endFill=1;" edge="1" parent="WIyWlLk6GJQsqaUBKTNV-1" source="R3YGLiMpYP2rGIN6Nitg-11" target="R3YGLiMpYP2rGIN6Nitg-31">
          <mxGeometry relative="1" as="geometry" />
        </mxCell>
        <mxCell id="R3YGLiMpYP2rGIN6Nitg-11" value="RedSection" style="swimlane;fontStyle=2;align=center;verticalAlign=top;childLayout=stackLayout;horizontal=1;startSize=26;horizontalStack=0;resizeParent=1;resizeLast=0;collapsible=1;marginBottom=0;rounded=0;shadow=0;strokeWidth=1;" vertex="1" parent="WIyWlLk6GJQsqaUBKTNV-1">
          <mxGeometry x="-40" y="66" width="240" height="86" as="geometry">
            <mxRectangle x="230" y="140" width="160" height="26" as="alternateBounds" />
          </mxGeometry>
        </mxCell>
        <mxCell id="R3YGLiMpYP2rGIN6Nitg-13" value="" style="line;html=1;strokeWidth=1;align=left;verticalAlign=middle;spacingTop=-1;spacingLeft=3;spacingRight=3;rotatable=0;labelPosition=right;points=[];portConstraint=eastwest;" vertex="1" parent="R3YGLiMpYP2rGIN6Nitg-11">
          <mxGeometry y="26" width="240" height="8" as="geometry" />
        </mxCell>
        <mxCell id="R3YGLiMpYP2rGIN6Nitg-134" style="edgeStyle=orthogonalEdgeStyle;rounded=0;orthogonalLoop=1;jettySize=auto;html=1;entryX=0;entryY=0.5;entryDx=0;entryDy=0;exitX=0.5;exitY=0;exitDx=0;exitDy=0;endSize=22;endArrow=diamondThin;endFill=0;" edge="1" parent="WIyWlLk6GJQsqaUBKTNV-1" source="R3YGLiMpYP2rGIN6Nitg-21" target="R3YGLiMpYP2rGIN6Nitg-124">
          <mxGeometry relative="1" as="geometry">
            <Array as="points">
              <mxPoint x="-310" y="30" />
              <mxPoint x="-560" y="30" />
              <mxPoint x="-560" y="-293" />
            </Array>
          </mxGeometry>
        </mxCell>
        <mxCell id="R3YGLiMpYP2rGIN6Nitg-21" value="TrafficLights" style="swimlane;fontStyle=0;align=center;verticalAlign=top;childLayout=stackLayout;horizontal=1;startSize=26;horizontalStack=0;resizeParent=1;resizeLast=0;collapsible=1;marginBottom=0;rounded=0;shadow=0;strokeWidth=1;" vertex="1" parent="WIyWlLk6GJQsqaUBKTNV-1">
          <mxGeometry x="-515" y="86" width="410" height="364" as="geometry">
            <mxRectangle x="550" y="140" width="160" height="26" as="alternateBounds" />
          </mxGeometry>
        </mxCell>
        <mxCell id="R3YGLiMpYP2rGIN6Nitg-29" value="- _triggers: Dictionary&lt;TrafficLightTrigger, TimeSpan&gt; " style="text;align=left;verticalAlign=top;spacingLeft=4;spacingRight=4;overflow=hidden;rotatable=0;points=[[0,0.5],[1,0.5]];portConstraint=eastwest;" vertex="1" parent="R3YGLiMpYP2rGIN6Nitg-21">
          <mxGeometry y="26" width="410" height="26" as="geometry" />
        </mxCell>
        <mxCell id="R3YGLiMpYP2rGIN6Nitg-30" value="- _greenSections: List&lt;GreenSection&gt;? " style="text;align=left;verticalAlign=top;spacingLeft=4;spacingRight=4;overflow=hidden;rotatable=0;points=[[0,0.5],[1,0.5]];portConstraint=eastwest;" vertex="1" parent="R3YGLiMpYP2rGIN6Nitg-21">
          <mxGeometry y="52" width="410" height="26" as="geometry" />
        </mxCell>
        <mxCell id="R3YGLiMpYP2rGIN6Nitg-31" value="- _redSection: RedSection? " style="text;align=left;verticalAlign=top;spacingLeft=4;spacingRight=4;overflow=hidden;rotatable=0;points=[[0,0.5],[1,0.5]];portConstraint=eastwest;" vertex="1" parent="R3YGLiMpYP2rGIN6Nitg-21">
          <mxGeometry y="78" width="410" height="26" as="geometry" />
        </mxCell>
        <mxCell id="R3YGLiMpYP2rGIN6Nitg-32" value="- _yellowSection: YellowSection? &#xa; " style="text;align=left;verticalAlign=top;spacingLeft=4;spacingRight=4;overflow=hidden;rotatable=0;points=[[0,0.5],[1,0.5]];portConstraint=eastwest;" vertex="1" parent="R3YGLiMpYP2rGIN6Nitg-21">
          <mxGeometry y="104" width="410" height="26" as="geometry" />
        </mxCell>
        <mxCell id="R3YGLiMpYP2rGIN6Nitg-33" value="+&lt;&lt;get&gt;&gt; &lt;&lt;set&gt;&gt; Name :  String?" style="text;align=left;verticalAlign=top;spacingLeft=4;spacingRight=4;overflow=hidden;rotatable=0;points=[[0,0.5],[1,0.5]];portConstraint=eastwest;" vertex="1" parent="R3YGLiMpYP2rGIN6Nitg-21">
          <mxGeometry y="130" width="410" height="26" as="geometry" />
        </mxCell>
        <mxCell id="R3YGLiMpYP2rGIN6Nitg-22" value="" style="line;html=1;strokeWidth=1;align=left;verticalAlign=middle;spacingTop=-1;spacingLeft=3;spacingRight=3;rotatable=0;labelPosition=right;points=[];portConstraint=eastwest;" vertex="1" parent="R3YGLiMpYP2rGIN6Nitg-21">
          <mxGeometry y="156" width="410" height="14" as="geometry" />
        </mxCell>
        <mxCell id="R3YGLiMpYP2rGIN6Nitg-35" value="+ CheckTriggerChangeState(time:TimeSpan): void" style="text;align=left;verticalAlign=top;spacingLeft=4;spacingRight=4;overflow=hidden;rotatable=0;points=[[0,0.5],[1,0.5]];portConstraint=eastwest;fontStyle=0" vertex="1" parent="R3YGLiMpYP2rGIN6Nitg-21">
          <mxGeometry y="170" width="410" height="26" as="geometry" />
        </mxCell>
        <mxCell id="R3YGLiMpYP2rGIN6Nitg-36" value="- GetGreenSection(type:SectionType) : GreenSection? " style="text;align=left;verticalAlign=top;spacingLeft=4;spacingRight=4;overflow=hidden;rotatable=0;points=[[0,0.5],[1,0.5]];portConstraint=eastwest;fontStyle=0" vertex="1" parent="R3YGLiMpYP2rGIN6Nitg-21">
          <mxGeometry y="196" width="410" height="26" as="geometry" />
        </mxCell>
        <mxCell id="R3YGLiMpYP2rGIN6Nitg-37" value="- ChangeState(trigger:TrafficLightTrigger) :void" style="text;align=left;verticalAlign=top;spacingLeft=4;spacingRight=4;overflow=hidden;rotatable=0;points=[[0,0.5],[1,0.5]];portConstraint=eastwest;fontStyle=0" vertex="1" parent="R3YGLiMpYP2rGIN6Nitg-21">
          <mxGeometry y="222" width="410" height="26" as="geometry" />
        </mxCell>
        <mxCell id="R3YGLiMpYP2rGIN6Nitg-38" value="+ GetTriggersTimings() : IEnumerable&lt;TimeSpan&gt; " style="text;align=left;verticalAlign=top;spacingLeft=4;spacingRight=4;overflow=hidden;rotatable=0;points=[[0,0.5],[1,0.5]];portConstraint=eastwest;fontStyle=0" vertex="1" parent="R3YGLiMpYP2rGIN6Nitg-21">
          <mxGeometry y="248" width="410" height="26" as="geometry" />
        </mxCell>
        <mxCell id="R3YGLiMpYP2rGIN6Nitg-39" value="+ GetStateStr() : string" style="text;align=left;verticalAlign=top;spacingLeft=4;spacingRight=4;overflow=hidden;rotatable=0;points=[[0,0.5],[1,0.5]];portConstraint=eastwest;fontStyle=0" vertex="1" parent="R3YGLiMpYP2rGIN6Nitg-21">
          <mxGeometry y="274" width="410" height="26" as="geometry" />
        </mxCell>
        <mxCell id="R3YGLiMpYP2rGIN6Nitg-40" value="+ Builder(): TrafficLightsBuilder &#xa; " style="text;align=left;verticalAlign=top;spacingLeft=4;spacingRight=4;overflow=hidden;rotatable=0;points=[[0,0.5],[1,0.5]];portConstraint=eastwest;fontStyle=4" vertex="1" parent="R3YGLiMpYP2rGIN6Nitg-21">
          <mxGeometry y="300" width="410" height="26" as="geometry" />
        </mxCell>
        <mxCell id="R3YGLiMpYP2rGIN6Nitg-41" value="+ TrafficLightsBuilder: nested class" style="text;align=left;verticalAlign=top;spacingLeft=4;spacingRight=4;overflow=hidden;rotatable=0;points=[[0,0.5],[1,0.5]];portConstraint=eastwest;fontStyle=1" vertex="1" parent="R3YGLiMpYP2rGIN6Nitg-21">
          <mxGeometry y="326" width="410" height="26" as="geometry" />
        </mxCell>
        <mxCell id="R3YGLiMpYP2rGIN6Nitg-91" style="edgeStyle=orthogonalEdgeStyle;rounded=0;orthogonalLoop=1;jettySize=auto;html=1;exitX=0.5;exitY=0;exitDx=0;exitDy=0;entryX=0.5;entryY=1;entryDx=0;entryDy=0;endSize=22;dashed=1;endArrow=block;endFill=0;" edge="1" parent="WIyWlLk6GJQsqaUBKTNV-1" source="R3YGLiMpYP2rGIN6Nitg-42" target="R3YGLiMpYP2rGIN6Nitg-64">
          <mxGeometry relative="1" as="geometry" />
        </mxCell>
        <mxCell id="R3YGLiMpYP2rGIN6Nitg-42" value="TrafficLightsBuilder" style="swimlane;fontStyle=0;align=center;verticalAlign=top;childLayout=stackLayout;horizontal=1;startSize=26;horizontalStack=0;resizeParent=1;resizeLast=0;collapsible=1;marginBottom=0;rounded=0;shadow=0;strokeWidth=1;" vertex="1" parent="WIyWlLk6GJQsqaUBKTNV-1">
          <mxGeometry x="-1120" y="240" width="470" height="330" as="geometry">
            <mxRectangle x="550" y="140" width="160" height="26" as="alternateBounds" />
          </mxGeometry>
        </mxCell>
        <mxCell id="R3YGLiMpYP2rGIN6Nitg-43" value="- _result:  TrafficLights" style="text;align=left;verticalAlign=top;spacingLeft=4;spacingRight=4;overflow=hidden;rotatable=0;points=[[0,0.5],[1,0.5]];portConstraint=eastwest;" vertex="1" parent="R3YGLiMpYP2rGIN6Nitg-42">
          <mxGeometry y="26" width="470" height="26" as="geometry" />
        </mxCell>
        <mxCell id="R3YGLiMpYP2rGIN6Nitg-48" value="" style="line;html=1;strokeWidth=1;align=left;verticalAlign=middle;spacingTop=-1;spacingLeft=3;spacingRight=3;rotatable=0;labelPosition=right;points=[];portConstraint=eastwest;" vertex="1" parent="R3YGLiMpYP2rGIN6Nitg-42">
          <mxGeometry y="52" width="470" height="14" as="geometry" />
        </mxCell>
        <mxCell id="R3YGLiMpYP2rGIN6Nitg-49" value="+ Build() : TrafficLights&#xa; " style="text;align=left;verticalAlign=top;spacingLeft=4;spacingRight=4;overflow=hidden;rotatable=0;points=[[0,0.5],[1,0.5]];portConstraint=eastwest;fontStyle=0" vertex="1" parent="R3YGLiMpYP2rGIN6Nitg-42">
          <mxGeometry y="66" width="470" height="26" as="geometry" />
        </mxCell>
        <mxCell id="R3YGLiMpYP2rGIN6Nitg-50" value="+ Reset() : void" style="text;align=left;verticalAlign=top;spacingLeft=4;spacingRight=4;overflow=hidden;rotatable=0;points=[[0,0.5],[1,0.5]];portConstraint=eastwest;fontStyle=0" vertex="1" parent="R3YGLiMpYP2rGIN6Nitg-42">
          <mxGeometry y="92" width="470" height="26" as="geometry" />
        </mxCell>
        <mxCell id="R3YGLiMpYP2rGIN6Nitg-51" value="+ AddLeftTurnGreenLight(from: TimeSpan, to: TimeSpan) : ITrafficLightsBuilder " style="text;align=left;verticalAlign=top;spacingLeft=4;spacingRight=4;overflow=hidden;rotatable=0;points=[[0,0.5],[1,0.5]];portConstraint=eastwest;fontStyle=0" vertex="1" parent="R3YGLiMpYP2rGIN6Nitg-42">
          <mxGeometry y="118" width="470" height="26" as="geometry" />
        </mxCell>
        <mxCell id="R3YGLiMpYP2rGIN6Nitg-57" value="+ AddGreenBasicLight(from: TimeSpan, to: TimeSpan) : ITrafficLightsBuilder " style="text;align=left;verticalAlign=top;spacingLeft=4;spacingRight=4;overflow=hidden;rotatable=0;points=[[0,0.5],[1,0.5]];portConstraint=eastwest;fontStyle=0" vertex="1" parent="R3YGLiMpYP2rGIN6Nitg-42">
          <mxGeometry y="144" width="470" height="26" as="geometry" />
        </mxCell>
        <mxCell id="R3YGLiMpYP2rGIN6Nitg-58" value="+ AddRedLight(from: TimeSpan, to: TimeSpan) : ITrafficLightsBuilder " style="text;align=left;verticalAlign=top;spacingLeft=4;spacingRight=4;overflow=hidden;rotatable=0;points=[[0,0.5],[1,0.5]];portConstraint=eastwest;fontStyle=0" vertex="1" parent="R3YGLiMpYP2rGIN6Nitg-42">
          <mxGeometry y="170" width="470" height="26" as="geometry" />
        </mxCell>
        <mxCell id="R3YGLiMpYP2rGIN6Nitg-59" value="+ AddRightTurnGreenLight(from: TimeSpan, to: TimeSpan) : ITrafficLightsBuilder " style="text;align=left;verticalAlign=top;spacingLeft=4;spacingRight=4;overflow=hidden;rotatable=0;points=[[0,0.5],[1,0.5]];portConstraint=eastwest;fontStyle=0" vertex="1" parent="R3YGLiMpYP2rGIN6Nitg-42">
          <mxGeometry y="196" width="470" height="26" as="geometry" />
        </mxCell>
        <mxCell id="R3YGLiMpYP2rGIN6Nitg-60" value="+ AddStraightOnlyGreenLight(from: TimeSpan, to: TimeSpan) : ITrafficLightsBuilder " style="text;align=left;verticalAlign=top;spacingLeft=4;spacingRight=4;overflow=hidden;rotatable=0;points=[[0,0.5],[1,0.5]];portConstraint=eastwest;fontStyle=0" vertex="1" parent="R3YGLiMpYP2rGIN6Nitg-42">
          <mxGeometry y="222" width="470" height="26" as="geometry" />
        </mxCell>
        <mxCell id="R3YGLiMpYP2rGIN6Nitg-61" value="+ AddYellowGRLight(from: TimeSpan, to: TimeSpan) : ITrafficLightsBuilder " style="text;align=left;verticalAlign=top;spacingLeft=4;spacingRight=4;overflow=hidden;rotatable=0;points=[[0,0.5],[1,0.5]];portConstraint=eastwest;fontStyle=0" vertex="1" parent="R3YGLiMpYP2rGIN6Nitg-42">
          <mxGeometry y="248" width="470" height="26" as="geometry" />
        </mxCell>
        <mxCell id="R3YGLiMpYP2rGIN6Nitg-62" value="+ AddYellowRGLight(from: TimeSpan, to: TimeSpan) : ITrafficLightsBuilder " style="text;align=left;verticalAlign=top;spacingLeft=4;spacingRight=4;overflow=hidden;rotatable=0;points=[[0,0.5],[1,0.5]];portConstraint=eastwest;fontStyle=0" vertex="1" parent="R3YGLiMpYP2rGIN6Nitg-42">
          <mxGeometry y="274" width="470" height="26" as="geometry" />
        </mxCell>
        <mxCell id="R3YGLiMpYP2rGIN6Nitg-63" value="+ WithName(name: string) : ITrafficLightsBuilder " style="text;align=left;verticalAlign=top;spacingLeft=4;spacingRight=4;overflow=hidden;rotatable=0;points=[[0,0.5],[1,0.5]];portConstraint=eastwest;fontStyle=0" vertex="1" parent="R3YGLiMpYP2rGIN6Nitg-42">
          <mxGeometry y="300" width="470" height="26" as="geometry" />
        </mxCell>
        <mxCell id="R3YGLiMpYP2rGIN6Nitg-56" style="edgeStyle=orthogonalEdgeStyle;rounded=0;orthogonalLoop=1;jettySize=auto;html=1;exitX=1;exitY=0.5;exitDx=0;exitDy=0;entryX=0;entryY=0.5;entryDx=0;entryDy=0;endArrow=diamondThin;endFill=1;strokeWidth=2;endSize=22;" edge="1" parent="WIyWlLk6GJQsqaUBKTNV-1" target="R3YGLiMpYP2rGIN6Nitg-41">
          <mxGeometry relative="1" as="geometry">
            <mxPoint x="-650" y="423.0000000000002" as="sourcePoint" />
          </mxGeometry>
        </mxCell>
        <mxCell id="R3YGLiMpYP2rGIN6Nitg-90" style="edgeStyle=orthogonalEdgeStyle;rounded=0;orthogonalLoop=1;jettySize=auto;html=1;exitX=0.5;exitY=0;exitDx=0;exitDy=0;entryX=0.5;entryY=1;entryDx=0;entryDy=0;endSize=22;endArrow=block;endFill=0;dashed=1;" edge="1" parent="WIyWlLk6GJQsqaUBKTNV-1" source="R3YGLiMpYP2rGIN6Nitg-64" target="R3YGLiMpYP2rGIN6Nitg-77">
          <mxGeometry relative="1" as="geometry" />
        </mxCell>
        <mxCell id="R3YGLiMpYP2rGIN6Nitg-64" value="ITrafficLightsBuilder" style="swimlane;fontStyle=0;align=center;verticalAlign=top;childLayout=stackLayout;horizontal=1;startSize=26;horizontalStack=0;resizeParent=1;resizeLast=0;collapsible=1;marginBottom=0;rounded=0;shadow=0;strokeWidth=1;" vertex="1" parent="WIyWlLk6GJQsqaUBKTNV-1">
          <mxGeometry x="-1120" y="-140" width="470" height="260" as="geometry">
            <mxRectangle x="550" y="140" width="160" height="26" as="alternateBounds" />
          </mxGeometry>
        </mxCell>
        <mxCell id="R3YGLiMpYP2rGIN6Nitg-66" value="" style="line;html=1;strokeWidth=1;align=left;verticalAlign=middle;spacingTop=-1;spacingLeft=3;spacingRight=3;rotatable=0;labelPosition=right;points=[];portConstraint=eastwest;" vertex="1" parent="R3YGLiMpYP2rGIN6Nitg-64">
          <mxGeometry y="26" width="470" height="14" as="geometry" />
        </mxCell>
        <mxCell id="R3YGLiMpYP2rGIN6Nitg-69" value="+ AddLeftTurnGreenLight(from: TimeSpan, to: TimeSpan) : ITrafficLightsBuilder " style="text;align=left;verticalAlign=top;spacingLeft=4;spacingRight=4;overflow=hidden;rotatable=0;points=[[0,0.5],[1,0.5]];portConstraint=eastwest;fontStyle=0" vertex="1" parent="R3YGLiMpYP2rGIN6Nitg-64">
          <mxGeometry y="40" width="470" height="26" as="geometry" />
        </mxCell>
        <mxCell id="R3YGLiMpYP2rGIN6Nitg-70" value="+ AddGreenBasicLight(from: TimeSpan, to: TimeSpan) : ITrafficLightsBuilder " style="text;align=left;verticalAlign=top;spacingLeft=4;spacingRight=4;overflow=hidden;rotatable=0;points=[[0,0.5],[1,0.5]];portConstraint=eastwest;fontStyle=0" vertex="1" parent="R3YGLiMpYP2rGIN6Nitg-64">
          <mxGeometry y="66" width="470" height="26" as="geometry" />
        </mxCell>
        <mxCell id="R3YGLiMpYP2rGIN6Nitg-71" value="+ AddRedLight(from: TimeSpan, to: TimeSpan) : ITrafficLightsBuilder " style="text;align=left;verticalAlign=top;spacingLeft=4;spacingRight=4;overflow=hidden;rotatable=0;points=[[0,0.5],[1,0.5]];portConstraint=eastwest;fontStyle=0" vertex="1" parent="R3YGLiMpYP2rGIN6Nitg-64">
          <mxGeometry y="92" width="470" height="26" as="geometry" />
        </mxCell>
        <mxCell id="R3YGLiMpYP2rGIN6Nitg-72" value="+ AddRightTurnGreenLight(from: TimeSpan, to: TimeSpan) : ITrafficLightsBuilder " style="text;align=left;verticalAlign=top;spacingLeft=4;spacingRight=4;overflow=hidden;rotatable=0;points=[[0,0.5],[1,0.5]];portConstraint=eastwest;fontStyle=0" vertex="1" parent="R3YGLiMpYP2rGIN6Nitg-64">
          <mxGeometry y="118" width="470" height="26" as="geometry" />
        </mxCell>
        <mxCell id="R3YGLiMpYP2rGIN6Nitg-73" value="+ AddStraightOnlyGreenLight(from: TimeSpan, to: TimeSpan) : ITrafficLightsBuilder " style="text;align=left;verticalAlign=top;spacingLeft=4;spacingRight=4;overflow=hidden;rotatable=0;points=[[0,0.5],[1,0.5]];portConstraint=eastwest;fontStyle=0" vertex="1" parent="R3YGLiMpYP2rGIN6Nitg-64">
          <mxGeometry y="144" width="470" height="26" as="geometry" />
        </mxCell>
        <mxCell id="R3YGLiMpYP2rGIN6Nitg-74" value="+ AddYellowGRLight(from: TimeSpan, to: TimeSpan) : ITrafficLightsBuilder " style="text;align=left;verticalAlign=top;spacingLeft=4;spacingRight=4;overflow=hidden;rotatable=0;points=[[0,0.5],[1,0.5]];portConstraint=eastwest;fontStyle=0" vertex="1" parent="R3YGLiMpYP2rGIN6Nitg-64">
          <mxGeometry y="170" width="470" height="26" as="geometry" />
        </mxCell>
        <mxCell id="R3YGLiMpYP2rGIN6Nitg-75" value="+ AddYellowRGLight(from: TimeSpan, to: TimeSpan) : ITrafficLightsBuilder " style="text;align=left;verticalAlign=top;spacingLeft=4;spacingRight=4;overflow=hidden;rotatable=0;points=[[0,0.5],[1,0.5]];portConstraint=eastwest;fontStyle=0" vertex="1" parent="R3YGLiMpYP2rGIN6Nitg-64">
          <mxGeometry y="196" width="470" height="26" as="geometry" />
        </mxCell>
        <mxCell id="R3YGLiMpYP2rGIN6Nitg-76" value="+ WithName(name: string) : ITrafficLightsBuilder " style="text;align=left;verticalAlign=top;spacingLeft=4;spacingRight=4;overflow=hidden;rotatable=0;points=[[0,0.5],[1,0.5]];portConstraint=eastwest;fontStyle=0" vertex="1" parent="R3YGLiMpYP2rGIN6Nitg-64">
          <mxGeometry y="222" width="470" height="26" as="geometry" />
        </mxCell>
        <mxCell id="R3YGLiMpYP2rGIN6Nitg-77" value="IBuilder&lt;T&gt;" style="swimlane;fontStyle=0;align=center;verticalAlign=top;childLayout=stackLayout;horizontal=1;startSize=26;horizontalStack=0;resizeParent=1;resizeLast=0;collapsible=1;marginBottom=0;rounded=0;shadow=0;strokeWidth=1;" vertex="1" parent="WIyWlLk6GJQsqaUBKTNV-1">
          <mxGeometry x="-1120" y="-350" width="470" height="120" as="geometry">
            <mxRectangle x="550" y="140" width="160" height="26" as="alternateBounds" />
          </mxGeometry>
        </mxCell>
        <mxCell id="R3YGLiMpYP2rGIN6Nitg-78" value="- _result:  TrafficLights" style="text;align=left;verticalAlign=top;spacingLeft=4;spacingRight=4;overflow=hidden;rotatable=0;points=[[0,0.5],[1,0.5]];portConstraint=eastwest;" vertex="1" parent="R3YGLiMpYP2rGIN6Nitg-77">
          <mxGeometry y="26" width="470" height="26" as="geometry" />
        </mxCell>
        <mxCell id="R3YGLiMpYP2rGIN6Nitg-79" value="" style="line;html=1;strokeWidth=1;align=left;verticalAlign=middle;spacingTop=-1;spacingLeft=3;spacingRight=3;rotatable=0;labelPosition=right;points=[];portConstraint=eastwest;" vertex="1" parent="R3YGLiMpYP2rGIN6Nitg-77">
          <mxGeometry y="52" width="470" height="14" as="geometry" />
        </mxCell>
        <mxCell id="R3YGLiMpYP2rGIN6Nitg-80" value="+ Build() : T&#xa; " style="text;align=left;verticalAlign=top;spacingLeft=4;spacingRight=4;overflow=hidden;rotatable=0;points=[[0,0.5],[1,0.5]];portConstraint=eastwest;fontStyle=0" vertex="1" parent="R3YGLiMpYP2rGIN6Nitg-77">
          <mxGeometry y="66" width="470" height="26" as="geometry" />
        </mxCell>
        <mxCell id="R3YGLiMpYP2rGIN6Nitg-81" value="+ Reset() : void" style="text;align=left;verticalAlign=top;spacingLeft=4;spacingRight=4;overflow=hidden;rotatable=0;points=[[0,0.5],[1,0.5]];portConstraint=eastwest;fontStyle=0" vertex="1" parent="R3YGLiMpYP2rGIN6Nitg-77">
          <mxGeometry y="92" width="470" height="26" as="geometry" />
        </mxCell>
        <mxCell id="R3YGLiMpYP2rGIN6Nitg-92" style="edgeStyle=orthogonalEdgeStyle;rounded=0;orthogonalLoop=1;jettySize=auto;html=1;entryX=1;entryY=0.5;entryDx=0;entryDy=0;endSize=22;endArrow=diamondThin;endFill=1;" edge="1" parent="WIyWlLk6GJQsqaUBKTNV-1" source="R3YGLiMpYP2rGIN6Nitg-4" target="R3YGLiMpYP2rGIN6Nitg-30">
          <mxGeometry relative="1" as="geometry" />
        </mxCell>
        <mxCell id="R3YGLiMpYP2rGIN6Nitg-119" value="" style="edgeStyle=orthogonalEdgeStyle;rounded=0;orthogonalLoop=1;jettySize=auto;html=1;entryX=0.5;entryY=1;entryDx=0;entryDy=0;endSize=22;endArrow=block;endFill=0;dashed=1;" edge="1" parent="WIyWlLk6GJQsqaUBKTNV-1" source="R3YGLiMpYP2rGIN6Nitg-95" target="R3YGLiMpYP2rGIN6Nitg-112">
          <mxGeometry relative="1" as="geometry" />
        </mxCell>
        <mxCell id="R3YGLiMpYP2rGIN6Nitg-95" value="ConsoleView" style="swimlane;fontStyle=0;align=center;verticalAlign=top;childLayout=stackLayout;horizontal=1;startSize=26;horizontalStack=0;resizeParent=1;resizeLast=0;collapsible=1;marginBottom=0;rounded=0;shadow=0;strokeWidth=1;" vertex="1" parent="WIyWlLk6GJQsqaUBKTNV-1">
          <mxGeometry x="-20" y="-590" width="410" height="144" as="geometry">
            <mxRectangle x="550" y="140" width="160" height="26" as="alternateBounds" />
          </mxGeometry>
        </mxCell>
        <mxCell id="R3YGLiMpYP2rGIN6Nitg-96" value="+ PrintInfoNotify : event Func&lt;(string name, string state)[]&gt; " style="text;align=left;verticalAlign=top;spacingLeft=4;spacingRight=4;overflow=hidden;rotatable=0;points=[[0,0.5],[1,0.5]];portConstraint=eastwest;" vertex="1" parent="R3YGLiMpYP2rGIN6Nitg-95">
          <mxGeometry y="26" width="410" height="26" as="geometry" />
        </mxCell>
        <mxCell id="R3YGLiMpYP2rGIN6Nitg-101" value="" style="line;html=1;strokeWidth=1;align=left;verticalAlign=middle;spacingTop=-1;spacingLeft=3;spacingRight=3;rotatable=0;labelPosition=right;points=[];portConstraint=eastwest;" vertex="1" parent="R3YGLiMpYP2rGIN6Nitg-95">
          <mxGeometry y="52" width="410" height="14" as="geometry" />
        </mxCell>
        <mxCell id="R3YGLiMpYP2rGIN6Nitg-103" value="+ PrintInfo(time: int) : void" style="text;align=left;verticalAlign=top;spacingLeft=4;spacingRight=4;overflow=hidden;rotatable=0;points=[[0,0.5],[1,0.5]];portConstraint=eastwest;fontStyle=0" vertex="1" parent="R3YGLiMpYP2rGIN6Nitg-95">
          <mxGeometry y="66" width="410" height="26" as="geometry" />
        </mxCell>
        <mxCell id="R3YGLiMpYP2rGIN6Nitg-110" value="+ ShowFullReport(dataList: (string name, string state)[] ,i: int) : void" style="text;align=left;verticalAlign=top;spacingLeft=4;spacingRight=4;overflow=hidden;rotatable=0;points=[[0,0.5],[1,0.5]];portConstraint=eastwest;fontStyle=0" vertex="1" parent="R3YGLiMpYP2rGIN6Nitg-95">
          <mxGeometry y="92" width="410" height="26" as="geometry" />
        </mxCell>
        <mxCell id="R3YGLiMpYP2rGIN6Nitg-111" value="- StrFormat() : string" style="text;align=left;verticalAlign=top;spacingLeft=4;spacingRight=4;overflow=hidden;rotatable=0;points=[[0,0.5],[1,0.5]];portConstraint=eastwest;fontStyle=4" vertex="1" parent="R3YGLiMpYP2rGIN6Nitg-95">
          <mxGeometry y="118" width="410" height="26" as="geometry" />
        </mxCell>
        <mxCell id="R3YGLiMpYP2rGIN6Nitg-153" style="edgeStyle=orthogonalEdgeStyle;rounded=0;orthogonalLoop=1;jettySize=auto;html=1;entryX=1;entryY=0.5;entryDx=0;entryDy=0;exitX=0.5;exitY=0;exitDx=0;exitDy=0;endSize=22;endArrow=none;endFill=0;startArrow=open;startFill=0;startSize=22;" edge="1" parent="WIyWlLk6GJQsqaUBKTNV-1" source="R3YGLiMpYP2rGIN6Nitg-112" target="R3YGLiMpYP2rGIN6Nitg-141">
          <mxGeometry relative="1" as="geometry" />
        </mxCell>
        <mxCell id="R3YGLiMpYP2rGIN6Nitg-112" value="IView" style="swimlane;fontStyle=0;align=center;verticalAlign=top;childLayout=stackLayout;horizontal=1;startSize=26;horizontalStack=0;resizeParent=1;resizeLast=0;collapsible=1;marginBottom=0;rounded=0;shadow=0;strokeWidth=1;" vertex="1" parent="WIyWlLk6GJQsqaUBKTNV-1">
          <mxGeometry x="-20" y="-810" width="410" height="144" as="geometry">
            <mxRectangle x="550" y="140" width="160" height="26" as="alternateBounds" />
          </mxGeometry>
        </mxCell>
        <mxCell id="R3YGLiMpYP2rGIN6Nitg-113" value="+ PrintInfoNotify : event Func&lt;(string name, string state)[]&gt; " style="text;align=left;verticalAlign=top;spacingLeft=4;spacingRight=4;overflow=hidden;rotatable=0;points=[[0,0.5],[1,0.5]];portConstraint=eastwest;" vertex="1" parent="R3YGLiMpYP2rGIN6Nitg-112">
          <mxGeometry y="26" width="410" height="26" as="geometry" />
        </mxCell>
        <mxCell id="R3YGLiMpYP2rGIN6Nitg-114" value="" style="line;html=1;strokeWidth=1;align=left;verticalAlign=middle;spacingTop=-1;spacingLeft=3;spacingRight=3;rotatable=0;labelPosition=right;points=[];portConstraint=eastwest;" vertex="1" parent="R3YGLiMpYP2rGIN6Nitg-112">
          <mxGeometry y="52" width="410" height="14" as="geometry" />
        </mxCell>
        <mxCell id="R3YGLiMpYP2rGIN6Nitg-115" value="+ PrintInfo(time: int) : void" style="text;align=left;verticalAlign=top;spacingLeft=4;spacingRight=4;overflow=hidden;rotatable=0;points=[[0,0.5],[1,0.5]];portConstraint=eastwest;fontStyle=0" vertex="1" parent="R3YGLiMpYP2rGIN6Nitg-112">
          <mxGeometry y="66" width="410" height="26" as="geometry" />
        </mxCell>
        <mxCell id="R3YGLiMpYP2rGIN6Nitg-116" value="+ ShowFullReport(dataList: (string name, string state)[] ,i: int) : void" style="text;align=left;verticalAlign=top;spacingLeft=4;spacingRight=4;overflow=hidden;rotatable=0;points=[[0,0.5],[1,0.5]];portConstraint=eastwest;fontStyle=0" vertex="1" parent="R3YGLiMpYP2rGIN6Nitg-112">
          <mxGeometry y="92" width="410" height="26" as="geometry" />
        </mxCell>
        <mxCell id="R3YGLiMpYP2rGIN6Nitg-150" style="edgeStyle=orthogonalEdgeStyle;rounded=0;orthogonalLoop=1;jettySize=auto;html=1;entryX=0;entryY=0.5;entryDx=0;entryDy=0;endSize=22;endArrow=diamondThin;endFill=0;" edge="1" parent="WIyWlLk6GJQsqaUBKTNV-1" source="R3YGLiMpYP2rGIN6Nitg-120" target="R3YGLiMpYP2rGIN6Nitg-139">
          <mxGeometry relative="1" as="geometry">
            <Array as="points">
              <mxPoint x="-310" y="-450" />
              <mxPoint x="-555" y="-450" />
              <mxPoint x="-555" y="-745" />
            </Array>
          </mxGeometry>
        </mxCell>
        <mxCell id="R3YGLiMpYP2rGIN6Nitg-120" value="TrafficLightsController" style="swimlane;fontStyle=0;align=center;verticalAlign=top;childLayout=stackLayout;horizontal=1;startSize=26;horizontalStack=0;resizeParent=1;resizeLast=0;collapsible=1;marginBottom=0;rounded=0;shadow=0;strokeWidth=1;" vertex="1" parent="WIyWlLk6GJQsqaUBKTNV-1">
          <mxGeometry x="-515" y="-410" width="410" height="330" as="geometry">
            <mxRectangle x="550" y="140" width="160" height="26" as="alternateBounds" />
          </mxGeometry>
        </mxCell>
        <mxCell id="R3YGLiMpYP2rGIN6Nitg-121" value="- _timeLoop : Timer?" style="text;align=left;verticalAlign=top;spacingLeft=4;spacingRight=4;overflow=hidden;rotatable=0;points=[[0,0.5],[1,0.5]];portConstraint=eastwest;fontStyle=4" vertex="1" parent="R3YGLiMpYP2rGIN6Nitg-120">
          <mxGeometry y="26" width="410" height="26" as="geometry" />
        </mxCell>
        <mxCell id="R3YGLiMpYP2rGIN6Nitg-122" value="+ NotifyTimeStamp : event Action&lt;TimeSpan&gt; " style="text;align=left;verticalAlign=top;spacingLeft=4;spacingRight=4;overflow=hidden;rotatable=0;points=[[0,0.5],[1,0.5]];portConstraint=eastwest;" vertex="1" parent="R3YGLiMpYP2rGIN6Nitg-120">
          <mxGeometry y="52" width="410" height="26" as="geometry" />
        </mxCell>
        <mxCell id="R3YGLiMpYP2rGIN6Nitg-123" value="- _timeStamps: SortedSet&lt;TimeSpan&gt; " style="text;align=left;verticalAlign=top;spacingLeft=4;spacingRight=4;overflow=hidden;rotatable=0;points=[[0,0.5],[1,0.5]];portConstraint=eastwest;" vertex="1" parent="R3YGLiMpYP2rGIN6Nitg-120">
          <mxGeometry y="78" width="410" height="26" as="geometry" />
        </mxCell>
        <mxCell id="R3YGLiMpYP2rGIN6Nitg-124" value="- _trafficLights: List&lt;TrafficLights&gt; &#xa; " style="text;align=left;verticalAlign=top;spacingLeft=4;spacingRight=4;overflow=hidden;rotatable=0;points=[[0,0.5],[1,0.5]];portConstraint=eastwest;" vertex="1" parent="R3YGLiMpYP2rGIN6Nitg-120">
          <mxGeometry y="104" width="410" height="26" as="geometry" />
        </mxCell>
        <mxCell id="R3YGLiMpYP2rGIN6Nitg-135" value="- _currIndex: int &#xa; " style="text;align=left;verticalAlign=top;spacingLeft=4;spacingRight=4;overflow=hidden;rotatable=0;points=[[0,0.5],[1,0.5]];portConstraint=eastwest;" vertex="1" parent="R3YGLiMpYP2rGIN6Nitg-120">
          <mxGeometry y="130" width="410" height="26" as="geometry" />
        </mxCell>
        <mxCell id="R3YGLiMpYP2rGIN6Nitg-136" value="- _nextSpan: TimeSpan &#xa; " style="text;align=left;verticalAlign=top;spacingLeft=4;spacingRight=4;overflow=hidden;rotatable=0;points=[[0,0.5],[1,0.5]];portConstraint=eastwest;" vertex="1" parent="R3YGLiMpYP2rGIN6Nitg-120">
          <mxGeometry y="156" width="410" height="26" as="geometry" />
        </mxCell>
        <mxCell id="R3YGLiMpYP2rGIN6Nitg-126" value="" style="line;html=1;strokeWidth=1;align=left;verticalAlign=middle;spacingTop=-1;spacingLeft=3;spacingRight=3;rotatable=0;labelPosition=right;points=[];portConstraint=eastwest;" vertex="1" parent="R3YGLiMpYP2rGIN6Nitg-120">
          <mxGeometry y="182" width="410" height="14" as="geometry" />
        </mxCell>
        <mxCell id="R3YGLiMpYP2rGIN6Nitg-127" value="+ StartTrafficLightsControl(): void" style="text;align=left;verticalAlign=top;spacingLeft=4;spacingRight=4;overflow=hidden;rotatable=0;points=[[0,0.5],[1,0.5]];portConstraint=eastwest;fontStyle=0" vertex="1" parent="R3YGLiMpYP2rGIN6Nitg-120">
          <mxGeometry y="196" width="410" height="26" as="geometry" />
        </mxCell>
        <mxCell id="R3YGLiMpYP2rGIN6Nitg-128" value="+ GetAllTrafficLightsInfo() : (string name, string state)[] " style="text;align=left;verticalAlign=top;spacingLeft=4;spacingRight=4;overflow=hidden;rotatable=0;points=[[0,0.5],[1,0.5]];portConstraint=eastwest;fontStyle=0" vertex="1" parent="R3YGLiMpYP2rGIN6Nitg-120">
          <mxGeometry y="222" width="410" height="26" as="geometry" />
        </mxCell>
        <mxCell id="R3YGLiMpYP2rGIN6Nitg-129" value="- DoWork(state :object? ) :void" style="text;align=left;verticalAlign=top;spacingLeft=4;spacingRight=4;overflow=hidden;rotatable=0;points=[[0,0.5],[1,0.5]];portConstraint=eastwest;fontStyle=0" vertex="1" parent="R3YGLiMpYP2rGIN6Nitg-120">
          <mxGeometry y="248" width="410" height="26" as="geometry" />
        </mxCell>
        <mxCell id="R3YGLiMpYP2rGIN6Nitg-130" value="- GetNextTimeTrigger(trigger : out TimeSpan ) : TimeSpan " style="text;align=left;verticalAlign=top;spacingLeft=4;spacingRight=4;overflow=hidden;rotatable=0;points=[[0,0.5],[1,0.5]];portConstraint=eastwest;fontStyle=0" vertex="1" parent="R3YGLiMpYP2rGIN6Nitg-120">
          <mxGeometry y="274" width="410" height="26" as="geometry" />
        </mxCell>
        <mxCell id="R3YGLiMpYP2rGIN6Nitg-131" value="+ AddTrafficLigthsToControl(tl: TrafficLights) : void" style="text;align=left;verticalAlign=top;spacingLeft=4;spacingRight=4;overflow=hidden;rotatable=0;points=[[0,0.5],[1,0.5]];portConstraint=eastwest;fontStyle=0" vertex="1" parent="R3YGLiMpYP2rGIN6Nitg-120">
          <mxGeometry y="300" width="410" height="26" as="geometry" />
        </mxCell>
        <mxCell id="R3YGLiMpYP2rGIN6Nitg-137" value="TrafficSimulatorService" style="swimlane;fontStyle=0;align=center;verticalAlign=top;childLayout=stackLayout;horizontal=1;startSize=26;horizontalStack=0;resizeParent=1;resizeLast=0;collapsible=1;marginBottom=0;rounded=0;shadow=0;strokeWidth=1;" vertex="1" parent="WIyWlLk6GJQsqaUBKTNV-1">
          <mxGeometry x="-515" y="-810" width="410" height="210" as="geometry">
            <mxRectangle x="550" y="140" width="160" height="26" as="alternateBounds" />
          </mxGeometry>
        </mxCell>
        <mxCell id="R3YGLiMpYP2rGIN6Nitg-138" value="- _timeLoop : Timer?" style="text;align=left;verticalAlign=top;spacingLeft=4;spacingRight=4;overflow=hidden;rotatable=0;points=[[0,0.5],[1,0.5]];portConstraint=eastwest;fontStyle=4" vertex="1" parent="R3YGLiMpYP2rGIN6Nitg-137">
          <mxGeometry y="26" width="410" height="26" as="geometry" />
        </mxCell>
        <mxCell id="R3YGLiMpYP2rGIN6Nitg-139" value="- _controller : TrafficLightsController " style="text;align=left;verticalAlign=top;spacingLeft=4;spacingRight=4;overflow=hidden;rotatable=0;points=[[0,0.5],[1,0.5]];portConstraint=eastwest;" vertex="1" parent="R3YGLiMpYP2rGIN6Nitg-137">
          <mxGeometry y="52" width="410" height="26" as="geometry" />
        </mxCell>
        <mxCell id="R3YGLiMpYP2rGIN6Nitg-140" value="- _simulationTimeSec : int" style="text;align=left;verticalAlign=top;spacingLeft=4;spacingRight=4;overflow=hidden;rotatable=0;points=[[0,0.5],[1,0.5]];portConstraint=eastwest;" vertex="1" parent="R3YGLiMpYP2rGIN6Nitg-137">
          <mxGeometry y="78" width="410" height="26" as="geometry" />
        </mxCell>
        <mxCell id="R3YGLiMpYP2rGIN6Nitg-141" value="- _view : IView" style="text;align=left;verticalAlign=top;spacingLeft=4;spacingRight=4;overflow=hidden;rotatable=0;points=[[0,0.5],[1,0.5]];portConstraint=eastwest;" vertex="1" parent="R3YGLiMpYP2rGIN6Nitg-137">
          <mxGeometry y="104" width="410" height="26" as="geometry" />
        </mxCell>
        <mxCell id="R3YGLiMpYP2rGIN6Nitg-144" value="" style="line;html=1;strokeWidth=1;align=left;verticalAlign=middle;spacingTop=-1;spacingLeft=3;spacingRight=3;rotatable=0;labelPosition=right;points=[];portConstraint=eastwest;" vertex="1" parent="R3YGLiMpYP2rGIN6Nitg-137">
          <mxGeometry y="130" width="410" height="14" as="geometry" />
        </mxCell>
        <mxCell id="R3YGLiMpYP2rGIN6Nitg-148" value="+ StartSimulation() : void" style="text;align=left;verticalAlign=top;spacingLeft=4;spacingRight=4;overflow=hidden;rotatable=0;points=[[0,0.5],[1,0.5]];portConstraint=eastwest;fontStyle=0" vertex="1" parent="R3YGLiMpYP2rGIN6Nitg-137">
          <mxGeometry y="144" width="410" height="26" as="geometry" />
        </mxCell>
        <mxCell id="R3YGLiMpYP2rGIN6Nitg-149" value="- void DoWork(o: object?) : void" style="text;align=left;verticalAlign=top;spacingLeft=4;spacingRight=4;overflow=hidden;rotatable=0;points=[[0,0.5],[1,0.5]];portConstraint=eastwest;fontStyle=0" vertex="1" parent="R3YGLiMpYP2rGIN6Nitg-137">
          <mxGeometry y="170" width="410" height="26" as="geometry" />
        </mxCell>
        <mxCell id="R3YGLiMpYP2rGIN6Nitg-154" value="Programm" style="swimlane;fontStyle=0;align=center;verticalAlign=top;childLayout=stackLayout;horizontal=1;startSize=26;horizontalStack=0;resizeParent=1;resizeLast=0;collapsible=1;marginBottom=0;rounded=0;shadow=0;strokeWidth=1;" vertex="1" parent="WIyWlLk6GJQsqaUBKTNV-1">
          <mxGeometry y="-340" width="410" height="180" as="geometry">
            <mxRectangle x="550" y="140" width="160" height="26" as="alternateBounds" />
          </mxGeometry>
        </mxCell>
        <mxCell id="R3YGLiMpYP2rGIN6Nitg-157" value="+ simulator : TrafficSimulatorService" style="text;align=left;verticalAlign=top;spacingLeft=4;spacingRight=4;overflow=hidden;rotatable=0;points=[[0,0.5],[1,0.5]];portConstraint=eastwest;" vertex="1" parent="R3YGLiMpYP2rGIN6Nitg-154">
          <mxGeometry y="26" width="410" height="26" as="geometry" />
        </mxCell>
        <mxCell id="R3YGLiMpYP2rGIN6Nitg-156" value="+ _controller : TrafficLightsController " style="text;align=left;verticalAlign=top;spacingLeft=4;spacingRight=4;overflow=hidden;rotatable=0;points=[[0,0.5],[1,0.5]];portConstraint=eastwest;" vertex="1" parent="R3YGLiMpYP2rGIN6Nitg-154">
          <mxGeometry y="52" width="410" height="26" as="geometry" />
        </mxCell>
        <mxCell id="R3YGLiMpYP2rGIN6Nitg-155" value="+ _tl: trafficLight" style="text;align=left;verticalAlign=top;spacingLeft=4;spacingRight=4;overflow=hidden;rotatable=0;points=[[0,0.5],[1,0.5]];portConstraint=eastwest;fontStyle=0" vertex="1" parent="R3YGLiMpYP2rGIN6Nitg-154">
          <mxGeometry y="78" width="410" height="26" as="geometry" />
        </mxCell>
        <mxCell id="R3YGLiMpYP2rGIN6Nitg-158" value="+ _view : ConsoleView" style="text;align=left;verticalAlign=top;spacingLeft=4;spacingRight=4;overflow=hidden;rotatable=0;points=[[0,0.5],[1,0.5]];portConstraint=eastwest;" vertex="1" parent="R3YGLiMpYP2rGIN6Nitg-154">
          <mxGeometry y="104" width="410" height="26" as="geometry" />
        </mxCell>
        <mxCell id="R3YGLiMpYP2rGIN6Nitg-159" value="" style="line;html=1;strokeWidth=1;align=left;verticalAlign=middle;spacingTop=-1;spacingLeft=3;spacingRight=3;rotatable=0;labelPosition=right;points=[];portConstraint=eastwest;" vertex="1" parent="R3YGLiMpYP2rGIN6Nitg-154">
          <mxGeometry y="130" width="410" height="14" as="geometry" />
        </mxCell>
        <mxCell id="R3YGLiMpYP2rGIN6Nitg-160" value="+ StartSimulation() : void" style="text;align=left;verticalAlign=top;spacingLeft=4;spacingRight=4;overflow=hidden;rotatable=0;points=[[0,0.5],[1,0.5]];portConstraint=eastwest;fontStyle=0" vertex="1" parent="R3YGLiMpYP2rGIN6Nitg-154">
          <mxGeometry y="144" width="410" height="26" as="geometry" />
        </mxCell>
        <mxCell id="R3YGLiMpYP2rGIN6Nitg-162" style="edgeStyle=orthogonalEdgeStyle;rounded=0;orthogonalLoop=1;jettySize=auto;html=1;entryX=0.75;entryY=0;entryDx=0;entryDy=0;endArrow=open;endFill=0;endSize=22;dashed=1;exitX=0;exitY=0.5;exitDx=0;exitDy=0;" edge="1" parent="WIyWlLk6GJQsqaUBKTNV-1" source="R3YGLiMpYP2rGIN6Nitg-155" target="R3YGLiMpYP2rGIN6Nitg-21">
          <mxGeometry relative="1" as="geometry">
            <Array as="points">
              <mxPoint x="-43" y="-250" />
              <mxPoint x="-43" y="-60" />
              <mxPoint x="-207" y="-60" />
            </Array>
          </mxGeometry>
        </mxCell>
        <mxCell id="R3YGLiMpYP2rGIN6Nitg-164" value="" style="edgeStyle=orthogonalEdgeStyle;rounded=0;orthogonalLoop=1;jettySize=auto;html=1;endArrow=open;endFill=0;endSize=22;dashed=1;entryX=0.998;entryY=0.054;entryDx=0;entryDy=0;entryPerimeter=0;" edge="1" parent="WIyWlLk6GJQsqaUBKTNV-1" source="R3YGLiMpYP2rGIN6Nitg-156" target="R3YGLiMpYP2rGIN6Nitg-120">
          <mxGeometry relative="1" as="geometry" />
        </mxCell>
        <mxCell id="R3YGLiMpYP2rGIN6Nitg-165" style="edgeStyle=orthogonalEdgeStyle;rounded=0;orthogonalLoop=1;jettySize=auto;html=1;entryX=0.75;entryY=1;entryDx=0;entryDy=0;exitX=0;exitY=0.5;exitDx=0;exitDy=0;dashed=1;endArrow=open;endFill=0;endSize=22;" edge="1" parent="WIyWlLk6GJQsqaUBKTNV-1" source="R3YGLiMpYP2rGIN6Nitg-157" target="R3YGLiMpYP2rGIN6Nitg-137">
          <mxGeometry relative="1" as="geometry">
            <Array as="points">
              <mxPoint x="-20" y="-301" />
              <mxPoint x="-20" y="-420" />
              <mxPoint x="-70" y="-420" />
              <mxPoint x="-70" y="-560" />
              <mxPoint x="-207" y="-560" />
            </Array>
          </mxGeometry>
        </mxCell>
        <mxCell id="R3YGLiMpYP2rGIN6Nitg-166" value="&lt;font style=&quot;font-size: 16px;&quot;&gt;create&lt;/font&gt;" style="text;html=1;align=center;verticalAlign=middle;resizable=0;points=[];autosize=1;strokeColor=none;fillColor=none;rotation=90;" vertex="1" parent="WIyWlLk6GJQsqaUBKTNV-1">
          <mxGeometry x="-125" y="-495" width="70" height="30" as="geometry" />
        </mxCell>
        <mxCell id="R3YGLiMpYP2rGIN6Nitg-167" value="&lt;font style=&quot;font-size: 16px;&quot;&gt;create&lt;/font&gt;" style="text;html=1;align=center;verticalAlign=middle;resizable=0;points=[];autosize=1;strokeColor=none;fillColor=none;rotation=90;" vertex="1" parent="WIyWlLk6GJQsqaUBKTNV-1">
          <mxGeometry x="-90" y="-340" width="70" height="30" as="geometry" />
        </mxCell>
        <mxCell id="R3YGLiMpYP2rGIN6Nitg-168" value="&lt;font style=&quot;font-size: 16px;&quot;&gt;create&lt;/font&gt;" style="text;html=1;align=center;verticalAlign=middle;resizable=0;points=[];autosize=1;strokeColor=none;fillColor=none;rotation=90;" vertex="1" parent="WIyWlLk6GJQsqaUBKTNV-1">
          <mxGeometry x="-90" y="-190" width="70" height="30" as="geometry" />
        </mxCell>
      </root>
    </mxGraphModel>
  </diagram>
</mxfile>
